# File exported by Houdini 21.0.631 (www.sidefx.com)
# 80 points
# 200 vertices
# 44 primitives
# Bounds: [-1.59726572, -0.357910156, -0.0800000057] to [1.59726572, 0.357910156, 0.0800000057]
g 
v -1.59726572 0.357910156 -0.0800000057
v -0.92490238 0.357910156 -0.0800000057
v -0.92490238 0.181152344 -0.0800000057
v -1.15048838 0.181152344 -0.0800000057
v -1.15048838 -0.357910156 -0.0800000057
v -1.37167978 -0.357910156 -0.0800000057
v -1.37167978 0.181152344 -0.0800000057
v -1.59726572 0.181152344 -0.0800000057
v -0.725292981 0.357910156 -0.0800000057
v -0.132519543 0.357910156 -0.0800000057
v -0.132519543 0.205078125 -0.0800000057
v -0.503613293 0.205078125 -0.0800000057
v -0.503613293 0.0913085938 -0.0800000057
v -0.159375012 0.0913085938 -0.0800000057
v -0.159375012 -0.0546875 -0.0800000057
v -0.503613293 -0.0546875 -0.0800000057
v -0.503613293 -0.195800781 -0.0800000057
v -0.121777356 -0.195800781 -0.0800000057
v -0.121777356 -0.357910156 -0.0800000057
v -0.725292981 -0.357910156 -0.0800000057
v 0.0480468646 0.357910156 -0.0800000057
v 0.291699201 0.357910156 -0.0800000057
v 0.418652326 0.137695312 -0.0800000057
v 0.541699231 0.357910156 -0.0800000057
v 0.782910168 0.357910156 -0.0800000057
v 0.560253918 0.0112304688 -0.0800000057
v 0.803906262 -0.357910156 -0.0800000057
v 0.555371106 -0.357910156 -0.0800000057
v 0.414257795 -0.127929688 -0.0800000057
v 0.272656232 -0.357910156 -0.0800000057
v 0.0255859271 -0.357910156 -0.0800000057
v 0.272656232 0.0151367188 -0.0800000057
v 0.92490232 0.357910156 -0.0800000057
v 1.59726572 0.357910156 -0.0800000057
v 1.59726572 0.181152344 -0.0800000057
v 1.37167978 0.181152344 -0.0800000057
v 1.37167978 -0.357910156 -0.0800000057
v 1.15048838 -0.357910156 -0.0800000057
v 1.15048838 0.181152344 -0.0800000057
v 0.92490232 0.181152344 -0.0800000057
v -1.59726572 0.357910156 0.0800000057
v -0.92490238 0.357910156 0.0800000057
v -0.92490238 0.181152344 0.0800000057
v -1.15048838 0.181152344 0.0800000057
v -1.15048838 -0.357910156 0.0800000057
v -1.37167978 -0.357910156 0.0800000057
v -1.37167978 0.181152344 0.0800000057
v -1.59726572 0.181152344 0.0800000057
v -0.725292981 0.357910156 0.0799999908
v -0.132519543 0.357910156 0.0799999908
v -0.132519543 0.205078125 0.0799999908
v -0.503613293 0.205078125 0.0799999908
v -0.503613293 0.0913085938 0.0799999908
v -0.159375012 0.0913085938 0.0799999908
v -0.159375012 -0.0546875 0.0799999908
v -0.503613293 -0.0546875 0.0799999908
v -0.503613293 -0.195800781 0.0799999908
v -0.121777356 -0.195800781 0.0799999908
v -0.121777356 -0.357910156 0.0799999908
v -0.725292981 -0.357910156 0.0799999908
v 0.0480468646 0.357910156 0.0799999908
v 0.291699201 0.357910156 0.0799999908
v 0.418652326 0.137695312 0.0799999908
v 0.541699231 0.357910156 0.0799999908
v 0.782910168 0.357910156 0.0799999908
v 0.560253918 0.0112304688 0.0799999908
v 0.803906262 -0.357910156 0.0799999908
v 0.555371106 -0.357910156 0.0799999908
v 0.414257795 -0.127929688 0.0799999908
v 0.272656232 -0.357910156 0.0799999908
v 0.0255859271 -0.357910156 0.0799999908
v 0.272656232 0.0151367188 0.0799999908
v 0.92490232 0.357910156 0.0800000057
v 1.59726572 0.357910156 0.0800000057
v 1.59726572 0.181152344 0.0800000057
v 1.37167978 0.181152344 0.0800000057
v 1.37167978 -0.357910156 0.0800000057
v 1.15048838 -0.357910156 0.0800000057
v 1.15048838 0.181152344 0.0800000057
v 0.92490232 0.181152344 0.0800000057
g 
f 41 48 47 46 45 44 43 42
f 49 60 59 58 57 56 55 54 53 52 51 50
f 61 72 71 70 69 68 67 66 65 64 63 62
f 73 80 79 78 77 76 75 74
f 1 41 42 2
f 2 42 43 3
f 3 43 44 4
f 4 44 45 5
f 5 45 46 6
f 6 46 47 7
f 7 47 48 8
f 8 48 41 1
f 9 49 50 10
f 10 50 51 11
f 11 51 52 12
f 12 52 53 13
f 13 53 54 14
f 14 54 55 15
f 15 55 56 16
f 16 56 57 17
f 17 57 58 18
f 18 58 59 19
f 19 59 60 20
f 20 60 49 9
f 21 61 62 22
f 22 62 63 23
f 23 63 64 24
f 24 64 65 25
f 25 65 66 26
f 26 66 67 27
f 27 67 68 28
f 28 68 69 29
f 29 69 70 30
f 30 70 71 31
f 31 71 72 32
f 32 72 61 21
f 33 73 74 34
f 34 74 75 35
f 35 75 76 36
f 36 76 77 37
f 37 77 78 38
f 38 78 79 39
f 39 79 80 40
f 40 80 73 33
